<svg width="312" height="106" viewBox="0 0 312 106" fill="none" xmlns="http://www.w3.org/2000/svg">
<path d="M138.614 67.643C136.973 67.6429 135.354 68.0197 133.883 68.744C132.411 69.4684 131.126 70.5209 130.128 71.8203C129.129 73.1196 128.443 74.6309 128.123 76.2372C127.803 77.8435 127.857 79.5017 128.282 81.0836C128.707 82.6655 129.491 84.1286 130.573 85.3597C131.655 86.5909 133.006 87.557 134.522 88.1835C136.038 88.8099 137.678 89.0798 139.316 88.9723C140.953 88.8648 142.543 88.3828 143.964 87.5635C144.478 87.2682 144.854 86.7811 145.008 86.2094C145.162 85.6377 145.083 85.0282 144.787 84.515C144.491 84.0019 144.003 83.6271 143.43 83.4731C142.857 83.319 142.247 83.3984 141.733 83.6938C140.952 84.1445 140.082 84.4205 139.183 84.5027C138.284 84.585 137.379 84.4715 136.528 84.1702C135.678 83.8689 134.903 83.3869 134.258 82.7575C133.612 82.1282 133.112 81.3664 132.79 80.5249H147.083C147.376 80.5249 147.666 80.4673 147.936 80.3553C148.207 80.2433 148.452 80.0792 148.659 79.8723C148.866 79.6654 149.03 79.4199 149.142 79.1497C149.253 78.8795 149.311 78.5899 149.31 78.2977C149.302 75.4706 148.172 72.7619 146.167 70.7649C144.162 68.7678 141.446 67.6453 138.614 67.643ZM132.79 76.0919C133.245 74.9214 134.044 73.9155 135.081 73.2063C136.119 72.497 137.348 72.1175 138.605 72.1175C139.863 72.1175 141.092 72.497 142.129 73.2063C143.167 73.9155 143.966 74.9214 144.421 76.0919H132.79Z" fill="black"/>
<path d="M155.104 63.64C154.811 63.6394 154.521 63.6965 154.251 63.808C153.981 63.9195 153.735 64.0833 153.528 64.2898C153.321 64.4963 153.157 64.7416 153.045 65.0116C152.934 65.2815 152.876 65.5708 152.877 65.8629V86.7681C152.877 87.3577 153.112 87.9231 153.529 88.34C153.947 88.7569 154.513 88.991 155.104 88.991C155.695 88.991 156.261 88.7569 156.679 88.34C157.096 87.9231 157.331 87.3577 157.331 86.7681V65.8629C157.332 65.5708 157.274 65.2815 157.163 65.0116C157.051 64.7416 156.887 64.4963 156.68 64.2898C156.473 64.0833 156.227 63.9195 155.957 63.808C155.686 63.6965 155.397 63.6394 155.104 63.64Z" fill="black"/>
<path d="M206.349 67.643C205.758 67.643 205.191 67.8772 204.774 68.2941C204.356 68.711 204.121 69.2764 204.121 69.8659V86.7681C204.147 87.3413 204.393 87.8827 204.808 88.2794C205.223 88.6761 205.776 88.8975 206.351 88.8975C206.926 88.8975 207.478 88.6761 207.893 88.2794C208.309 87.8827 208.555 87.3413 208.58 86.7681V69.8659C208.58 69.5737 208.522 69.2842 208.41 69.0143C208.298 68.7443 208.133 68.499 207.926 68.2926C207.719 68.0861 207.473 67.9224 207.202 67.811C206.931 67.6995 206.641 67.6424 206.349 67.643Z" fill="black"/>
<path d="M178.275 67.643C177.81 67.6436 177.357 67.7894 176.979 68.0601C176.601 68.3307 176.318 68.7126 176.169 69.1522C174.545 68.184 172.694 67.6627 170.803 67.6415C168.912 67.6203 167.049 68.0999 165.404 69.0315C163.759 69.963 162.391 71.3132 161.44 72.9443C160.488 74.5755 159.986 76.4294 159.986 78.317C159.986 80.2046 160.488 82.0585 161.44 83.6897C162.391 85.3209 163.759 86.671 165.404 87.6026C167.049 88.5341 168.912 89.0137 170.803 88.9925C172.694 88.9713 174.545 88.45 176.169 87.4818C176.34 87.9789 176.681 88.3994 177.133 88.6688C177.585 88.9382 178.118 89.0391 178.638 88.9535C179.157 88.868 179.63 88.6015 179.971 88.2015C180.312 87.8014 180.5 87.2936 180.502 86.7681V69.8659C180.503 69.5739 180.446 69.2845 180.334 69.0146C180.222 68.7446 180.058 68.4993 179.851 68.2928C179.644 68.0863 179.399 67.9226 179.128 67.811C178.858 67.6995 178.568 67.6424 178.275 67.643ZM170.702 84.5452C169.609 84.5483 168.535 84.2649 167.586 83.7234C166.637 83.1819 165.847 82.4013 165.296 81.4595C164.744 80.5177 164.45 79.4479 164.442 78.357C164.435 77.2661 164.715 76.1924 165.254 75.2433C165.792 74.2942 166.572 73.5029 167.513 72.9486C168.454 72.3944 169.525 72.0966 170.618 72.085C171.711 72.0734 172.787 72.3484 173.74 72.8826C174.693 73.4168 175.489 74.1913 176.048 75.1288V81.5138C175.496 82.4372 174.713 83.2019 173.776 83.7332C172.839 84.2644 171.78 84.5442 170.702 84.5452Z" fill="black"/>
<path d="M198.776 72.0889C199.366 72.0889 199.933 71.8547 200.35 71.4378C200.768 71.0209 201.003 70.4555 201.003 69.8659C201.003 69.2764 200.768 68.711 200.35 68.2941C199.933 67.8772 199.366 67.643 198.776 67.643H191.646V65.8629C191.621 65.2897 191.375 64.7483 190.96 64.3516C190.545 63.9549 189.992 63.7335 189.417 63.7335C188.842 63.7335 188.29 63.9549 187.874 64.3516C187.459 64.7483 187.213 65.2897 187.188 65.8629V67.643H185.404C184.814 67.643 184.247 67.8772 183.83 68.2941C183.412 68.711 183.177 69.2764 183.177 69.8659C183.177 70.4555 183.412 71.0209 183.83 71.4378C184.247 71.8547 184.814 72.0889 185.404 72.0889H187.188V80.5421C187.191 82.0245 187.585 83.48 188.329 84.7627C189.074 86.0455 190.143 87.1104 191.429 87.8507C192.716 88.5911 194.175 88.9809 195.66 88.981C197.145 88.9812 198.604 88.5917 199.891 87.8516C200.405 87.5563 200.781 87.0691 200.935 86.4974C201.09 85.9257 201.01 85.3163 200.714 84.8031C200.418 84.29 199.93 83.9151 199.357 83.7611C198.785 83.6071 198.174 83.6865 197.66 83.9819C197.051 84.3342 196.36 84.5196 195.657 84.5194C194.598 84.5049 193.586 84.0785 192.837 83.3309C192.088 82.5833 191.661 81.5735 191.646 80.5163V72.0889H198.776Z" fill="black"/>
<path d="M206.349 66.3101C207.826 66.3101 209.024 65.1147 209.024 63.64C209.024 62.1653 207.826 60.9699 206.349 60.9699C204.871 60.9699 203.673 62.1653 203.673 63.64C203.673 65.1147 204.871 66.3101 206.349 66.3101Z" fill="black"/>
<path d="M121.68 67.643C121.216 67.6433 120.763 67.7885 120.385 68.0583C120.008 68.3282 119.724 68.7092 119.574 69.1479C117.955 68.184 116.111 67.6641 114.226 67.6407C112.342 67.6173 110.484 68.0914 108.842 69.0149C107.2 69.9384 105.832 71.2785 104.876 72.8996C103.92 74.5206 103.41 76.3651 103.397 78.2462C103.385 80.1273 103.871 81.9783 104.806 83.6117C105.741 85.2451 107.091 86.603 108.721 87.5479C110.351 88.4927 112.202 88.991 114.086 88.9922C115.971 88.9935 117.822 88.4977 119.453 87.555V90.7711H116.795C115.386 90.772 114.008 91.1901 112.836 91.9725C111.664 92.7549 110.751 93.8666 110.212 95.167C109.673 96.4673 109.532 97.898 109.808 99.2781C110.084 100.658 110.763 101.926 111.76 102.92C112.757 103.915 114.028 104.593 115.41 104.867C116.793 105.141 118.227 105 119.529 104.461C120.831 103.922 121.945 103.01 122.728 101.84C123.511 100.67 123.929 99.2944 123.929 97.8872V69.866C123.929 69.5722 123.871 69.2814 123.757 69.0103C123.644 68.7392 123.478 68.4932 123.269 68.2865C123.06 68.0798 122.812 67.9165 122.539 67.806C122.267 67.6956 121.975 67.6402 121.68 67.643ZM119.453 97.8872C119.453 98.4153 119.296 98.9315 119.002 99.3706C118.709 99.8097 118.291 100.152 117.802 100.354C117.313 100.556 116.775 100.609 116.256 100.506C115.737 100.403 115.261 100.149 114.887 99.7752C114.513 99.4018 114.258 98.926 114.155 98.4081C114.051 97.8901 114.104 97.3533 114.307 96.8653C114.509 96.3774 114.852 95.9604 115.292 95.6671C115.732 95.3737 116.249 95.217 116.778 95.217H119.453V97.8872ZM114.107 84.5581C113.015 84.5599 111.942 84.2757 110.995 83.7339C110.047 83.1922 109.258 82.4118 108.708 81.4707C108.157 80.5296 107.863 79.4607 107.855 78.3708C107.848 77.2808 108.127 76.208 108.665 75.2594C109.202 74.3108 109.98 73.5196 110.92 72.9649C111.86 72.4101 112.929 72.1112 114.021 72.098C115.113 72.0848 116.19 72.3577 117.143 72.8895C118.096 73.4214 118.893 74.1935 119.453 75.1288V81.5139C118.901 82.4373 118.118 83.2019 117.181 83.7332C116.244 84.2645 115.185 84.5442 114.107 84.5452V84.5581Z" fill="black"/>
<path d="M72.6801 16.713L74.61 13.342C75.5812 11.6446 75.9653 9.67516 75.703 7.73805C75.4406 5.80094 74.5463 4.00402 73.1583 2.625C71.7704 1.24598 69.966 0.361647 68.0241 0.108671C66.0822 -0.144305 64.1109 0.248159 62.4148 1.22542C60.7187 0.248159 58.7474 -0.144305 56.8055 0.108671C54.8636 0.361647 53.0592 1.24598 51.6713 2.625C50.2833 4.00402 49.389 5.80094 49.1267 7.73805C48.8643 9.67516 49.2484 11.6446 50.2197 13.342L52.1495 16.713L44.8566 29.4229C43.6838 31.4755 43.376 33.9091 44.0009 36.1883C44.6258 38.4674 46.1321 40.4055 48.1886 41.576C50.245 42.7466 52.6831 43.0538 54.9665 42.4301C57.2499 41.8064 59.1916 40.3028 60.3643 38.2502L62.432 34.6428L64.4954 38.2502C65.6682 40.2988 67.6083 41.7986 69.8888 42.4195C72.1694 43.0404 74.6037 42.7315 76.6561 41.561C78.7086 40.3904 80.2111 38.454 80.8332 36.1776C81.4552 33.9013 81.1458 31.4716 79.9731 29.4229L72.6801 16.713ZM64.1982 26.7227H60.6314C60.1584 26.7227 59.7048 26.5351 59.3704 26.2013C59.0359 25.8675 58.848 25.4147 58.848 24.9426C58.848 24.4705 59.0359 24.0177 59.3704 23.6839C59.7048 23.3501 60.1584 23.1625 60.6314 23.1625H64.1982C64.6712 23.1625 65.1248 23.3501 65.4593 23.6839C65.7937 24.0177 65.9816 24.4705 65.9816 24.9426C65.9816 25.4147 65.7937 25.8675 65.4593 26.2013C65.1248 26.5351 64.6712 26.7227 64.1982 26.7227Z" fill="black"/>
<path d="M231.32 16.713L233.25 13.342C234.229 11.6436 234.619 9.66991 234.359 7.72767C234.098 5.78543 233.203 3.98345 231.81 2.60177C230.418 1.22009 228.608 0.336106 226.661 0.0872128C224.713 -0.16168 222.738 0.238449 221.042 1.22543C219.346 0.248167 217.375 -0.144296 215.433 0.10868C213.491 0.361656 211.687 1.24599 210.299 2.62501C208.911 4.00403 208.016 5.80095 207.754 7.73806C207.492 9.67517 207.876 11.6446 208.847 13.342L210.777 16.713L203.497 29.4229C202.916 30.4373 202.541 31.5559 202.394 32.7149C202.246 33.8739 202.329 35.0505 202.637 36.1776C202.945 37.3048 203.472 38.3603 204.189 39.284C204.906 40.2077 205.798 40.9814 206.814 41.561C207.83 42.1406 208.951 42.5147 210.112 42.662C211.273 42.8093 212.452 42.7269 213.581 42.4195C214.71 42.112 215.768 41.5856 216.693 40.8703C217.619 40.1549 218.394 39.2646 218.974 38.2502L221.042 34.6428L223.106 38.2502C223.686 39.2646 224.461 40.1549 225.387 40.8703C226.312 41.5856 227.37 42.112 228.499 42.4195C229.628 42.7269 230.807 42.8093 231.968 42.662C233.129 42.5147 234.25 42.1406 235.266 41.561C236.283 40.9814 237.175 40.2077 237.891 39.284C238.608 38.3603 239.135 37.3048 239.443 36.1776C239.751 35.0505 239.834 33.8739 239.686 32.7149C239.539 31.5559 239.164 30.4373 238.583 29.4229L231.32 16.713ZM222.839 26.7227H219.276C218.803 26.7227 218.349 26.5351 218.015 26.2013C217.681 25.8675 217.493 25.4147 217.493 24.9426C217.493 24.4705 217.681 24.0177 218.015 23.6839C218.349 23.3501 218.803 23.1625 219.276 23.1625H222.839C223.311 23.1625 223.765 23.3501 224.1 23.6839C224.434 24.0177 224.622 24.4705 224.622 24.9426C224.622 25.4147 224.434 25.8675 224.1 26.2013C223.765 26.5351 223.311 26.7227 222.839 26.7227Z" fill="black"/>
<path d="M296.367 27.6084H304.836C306.493 27.6084 308.081 26.9516 309.253 25.7824C310.424 24.6131 311.082 23.0274 311.082 21.3738C311.082 19.7203 310.424 18.1345 309.253 16.9653C308.081 15.7961 306.493 15.1393 304.836 15.1393H296.367C296.025 15.1199 295.704 14.9708 295.469 14.7226C295.234 14.4743 295.103 14.1457 295.103 13.8042C295.103 13.4627 295.234 13.1341 295.469 12.8859C295.704 12.6376 296.025 12.4885 296.367 12.4692H304.836C306.493 12.4692 308.081 11.8123 309.253 10.6431C310.424 9.47389 311.082 7.88809 311.082 6.23458C311.082 4.58106 310.424 2.99527 309.253 1.82606C308.081 0.656854 306.493 0 304.836 0H289.686C288.119 0.00102496 286.581 0.413914 285.225 1.1971C283.869 1.98029 282.744 3.10615 281.963 4.46134C281.182 5.81653 280.772 7.35323 280.775 8.91676C280.777 10.4803 281.193 12.0155 281.979 13.3678C282.29 13.9003 282.454 14.5057 282.454 15.1221C282.454 15.7385 282.29 16.3439 281.979 16.8764C281.189 18.2354 280.773 19.7788 280.773 21.3502C280.773 22.9215 281.189 24.465 281.979 25.8241C282.29 26.3558 282.454 26.9604 282.454 27.5762C282.454 28.1919 282.29 28.7966 281.979 29.3283C281.192 30.6807 280.776 32.2164 280.772 33.7805C280.769 35.3447 281.178 36.8821 281.96 38.238C282.741 39.5938 283.867 40.7202 285.223 41.5036C286.579 42.287 288.119 42.6998 289.686 42.7004H304.836C306.493 42.7004 308.081 42.0436 309.253 40.8743C310.424 39.7051 311.082 38.1193 311.082 36.4658C311.082 34.8123 310.424 33.2265 309.253 32.0573C308.081 30.8881 306.493 30.2313 304.836 30.2313H296.367C296.025 30.2119 295.704 30.0628 295.469 29.8145C295.234 29.5663 295.103 29.2377 295.103 28.8962C295.103 28.5547 295.234 28.2261 295.469 27.9778C295.704 27.7296 296.025 27.5805 296.367 27.5611V27.6084Z" fill="black"/>
<path d="M268.294 24.9426C266.51 24.9407 264.767 25.4756 263.292 26.4776C262.983 26.6826 262.616 26.7857 262.245 26.7724C261.874 26.7591 261.516 26.63 261.222 26.4033C260.927 26.1765 260.712 25.8636 260.605 25.5083C260.498 25.153 260.505 24.7733 260.626 24.4224C261.073 23.1986 261.245 21.8914 261.129 20.5939C261.013 19.2963 260.612 18.0403 259.954 16.9151C259.645 16.3818 259.482 15.7768 259.482 15.1608C259.482 14.5448 259.645 13.9397 259.954 13.4065C260.742 12.0546 261.16 10.519 261.164 8.95469C261.169 7.39034 260.76 5.85252 259.978 4.49631C259.197 3.14011 258.072 2.01347 256.715 1.23005C255.358 0.446633 253.819 0.0341187 252.252 0.0341187C250.684 0.0341187 249.145 0.446633 247.788 1.23005C246.432 2.01347 245.306 3.14011 244.525 4.49631C243.744 5.85252 243.335 7.39034 243.339 8.95469C243.343 10.519 243.761 12.0546 244.549 13.4065C244.858 13.9397 245.021 14.5448 245.021 15.1608C245.021 15.7768 244.858 16.3818 244.549 16.9151C243.757 18.2733 243.339 19.817 243.339 21.3889C243.339 22.9608 243.757 24.5045 244.549 25.8627C244.858 26.3952 245.021 26.9996 245.021 27.6149C245.021 28.2302 244.858 28.8346 244.549 29.367C243.493 31.1811 243.112 33.3096 243.476 35.3765C243.839 37.4434 244.923 39.3155 246.535 40.6621C248.148 42.0086 250.185 42.7428 252.287 42.735C254.39 42.7272 256.422 41.9778 258.024 40.6193C258.653 40.09 259.45 39.7997 260.273 39.7997C261.095 39.7997 261.892 40.09 262.521 40.6193C263.615 41.5476 264.916 42.1986 266.316 42.5169C267.716 42.8351 269.171 42.8112 270.56 42.4473C271.948 42.0833 273.228 41.3901 274.29 40.4265C275.352 39.4628 276.166 38.2574 276.661 36.9126C277.156 35.5678 277.319 34.1236 277.135 32.7026C276.951 31.2817 276.426 29.9261 275.604 28.7513C274.783 27.5764 273.689 26.617 272.416 25.9546C271.143 25.2923 269.729 24.9465 268.294 24.9469V24.9426Z" fill="black"/>
<path d="M147.083 8.91329C147.084 7.54717 146.769 6.19924 146.164 4.97401C145.558 3.74878 144.679 2.67916 143.592 1.84809C142.506 1.01702 141.243 0.446835 139.9 0.18173C138.557 -0.0833754 137.171 -0.0362691 135.85 0.319389C134.529 0.675047 133.307 1.32971 132.28 2.23261C131.253 3.13551 130.448 4.26238 129.927 5.52588C129.407 6.78938 129.185 8.15555 129.279 9.51846C129.372 10.8814 129.779 12.2044 130.468 13.385C130.777 13.9182 130.94 14.5233 130.94 15.1393C130.94 15.7552 130.777 16.3603 130.468 16.8935C129.675 18.2518 129.258 19.7955 129.258 21.3674C129.258 22.9393 129.675 24.483 130.468 25.8412C130.777 26.3737 130.94 26.9781 130.94 27.5934C130.94 28.2087 130.777 28.8131 130.468 29.3455C129.68 30.6974 129.262 32.233 129.258 33.7973C129.253 35.3617 129.662 36.8995 130.444 38.2557C131.225 39.6119 132.35 40.7385 133.707 41.5219C135.063 42.3054 136.603 42.7179 138.17 42.7179C139.738 42.7179 141.277 42.3054 142.634 41.5219C143.99 40.7385 145.116 39.6119 145.897 38.2557C146.678 36.8995 147.087 35.3617 147.083 33.7973C147.079 32.233 146.661 30.6974 145.873 29.3455C145.564 28.8131 145.401 28.2087 145.401 27.5934C145.401 26.9781 145.564 26.3737 145.873 25.8412C146.665 24.483 147.083 22.9393 147.083 21.3674C147.083 19.7955 146.665 18.2518 145.873 16.8935C145.564 16.3603 145.401 15.7552 145.401 15.1393C145.401 14.5233 145.564 13.9182 145.873 13.385C146.668 12.0286 147.086 10.4849 147.083 8.91329Z" fill="black"/>
<path d="M123.912 8.91331C123.912 6.55392 122.973 4.29116 121.301 2.62282C119.63 0.954479 117.363 0.0172119 114.999 0.0172119C112.635 0.0172119 110.368 0.954479 108.697 2.62282C107.025 4.29116 106.086 6.55392 106.086 8.91331C106.086 9.22289 106.108 9.52817 106.138 9.83345L100.374 3.1216C98.9261 1.44128 96.9014 0.361177 94.697 0.0928452C92.4926 -0.175486 90.2672 0.387292 88.4568 1.67094C86.6463 2.95458 85.3812 4.86662 84.9091 7.03258C84.4371 9.19854 84.7922 11.4624 85.9048 13.3807C86.2137 13.9139 86.3764 14.519 86.3764 15.135C86.3764 15.7509 86.2137 16.356 85.9048 16.8893C85.1121 18.2475 84.6944 19.7912 84.6944 21.3631C84.6944 22.935 85.1121 24.4787 85.9048 25.837C86.2138 26.3694 86.3765 26.9738 86.3765 27.5891C86.3765 28.2044 86.2138 28.8088 85.9048 29.3412C85.217 30.5204 84.8101 31.8417 84.7157 33.2029C84.6213 34.5641 84.8418 35.9288 85.3603 37.1913C85.8787 38.4538 86.6812 39.5804 87.7056 40.4839C88.73 41.3874 89.9489 42.0436 91.268 42.4017C92.5871 42.7598 93.9711 42.8102 95.3128 42.549C96.6546 42.2879 97.9182 41.7222 99.0059 40.8957C100.094 40.0691 100.976 39.0039 101.585 37.7825C102.195 36.5611 102.514 35.2161 102.52 33.8516C102.52 33.5377 102.498 33.2324 102.468 32.9272L108.232 39.639C109.679 41.323 111.705 42.4062 113.912 42.6761C116.118 42.9459 118.346 42.383 120.158 41.0976C121.971 39.8123 123.236 37.8973 123.707 35.7286C124.177 33.5599 123.818 31.2941 122.701 29.3756C122.39 28.8439 122.226 28.2392 122.226 27.6235C122.226 27.0077 122.39 26.4031 122.701 25.8714C123.494 24.5132 123.912 22.9694 123.912 21.3975C123.912 19.8256 123.494 18.2819 122.701 16.9237C122.39 16.3912 122.226 15.7858 122.226 15.1694C122.226 14.553 122.39 13.9476 122.701 13.4151C123.5 12.0491 123.918 10.4948 123.912 8.91331Z" fill="black"/>
<path d="M40.1181 8.91331C40.1181 6.55392 39.1791 4.29116 37.5076 2.62282C35.8362 0.954479 33.5692 0.0172119 31.2054 0.0172119C28.8416 0.0172119 26.5746 0.954479 24.9032 2.62282C23.2317 4.29116 22.2927 6.55392 22.2927 8.91331C22.2941 9.22083 22.3128 9.52803 22.3487 9.83345L16.5979 3.1388C15.1522 1.45136 13.1263 0.364846 10.9185 0.0929371C8.71083 -0.178972 6.48107 0.383404 4.66774 1.66945C2.85442 2.9555 1.58874 4.87216 1.11961 7.04255C0.650474 9.21294 1.01183 11.48 2.13262 13.3979C2.44156 13.9311 2.60422 14.5362 2.60422 15.1522C2.60422 15.7682 2.44156 16.3733 2.13262 16.9065C1.33988 18.2647 0.922212 19.8084 0.922212 21.3803C0.922212 22.9522 1.33988 24.496 2.13262 25.8542C2.4416 26.3866 2.60431 26.991 2.60431 27.6063C2.60431 28.2216 2.4416 28.826 2.13262 29.3584C1.44293 30.5381 1.03466 31.8605 0.939446 33.2231C0.844236 34.5857 1.06465 35.9518 1.58359 37.2157C2.10254 38.4796 2.90608 39.6072 3.93194 40.5111C4.9578 41.4151 6.17843 42.0712 7.49922 42.4284C8.82 42.7857 10.2055 42.8346 11.5483 42.5714C12.891 42.3081 14.155 41.7398 15.2423 40.9104C16.3296 40.081 17.2109 39.0129 17.8181 37.7888C18.4252 36.5647 18.7417 35.2175 18.7432 33.8516C18.7432 33.5377 18.7432 33.2324 18.6915 32.9272L24.4552 39.639C25.9028 41.323 27.9287 42.4062 30.1353 42.6761C32.3419 42.9459 34.5699 42.383 36.382 41.0976C38.1941 39.8123 39.4596 37.8973 39.93 35.7286C40.4005 33.5599 40.042 31.2941 38.9248 29.3756C38.6137 28.8439 38.4498 28.2392 38.4498 27.6235C38.4498 27.0077 38.6137 26.4031 38.9248 25.8714C39.715 24.5123 40.1312 22.9688 40.1312 21.3975C40.1312 19.8261 39.715 18.2827 38.9248 16.9237C38.6138 16.3912 38.4499 15.7858 38.4499 15.1694C38.4499 14.553 38.6138 13.9476 38.9248 13.4151C39.7175 12.0475 40.1295 10.4932 40.1181 8.91331Z" fill="black"/>
<path d="M198.776 8.9133C198.775 7.09569 198.217 5.32181 197.176 3.83034C196.136 2.33887 194.662 1.2014 192.954 0.571007C191.246 -0.0593901 189.386 -0.152465 187.623 0.304309C185.861 0.761083 184.281 1.74578 183.096 3.1259L175.604 11.8543L168.109 3.1259C166.661 1.44558 164.636 0.365475 162.432 0.0971439C160.227 -0.171187 158.002 0.391577 156.191 1.67522C154.381 2.95886 153.116 4.87092 152.644 7.03688C152.172 9.20284 152.527 11.4667 153.639 13.385C153.948 13.9182 154.111 14.5233 154.111 15.1393C154.111 15.7552 153.948 16.3603 153.639 16.8936C152.847 18.2518 152.429 19.7955 152.429 21.3674C152.429 22.9393 152.847 24.483 153.639 25.8412C153.948 26.3737 154.111 26.9781 154.111 27.5934C154.111 28.2087 153.948 28.8131 153.639 29.3455C152.863 30.6777 152.446 32.1885 152.43 33.7299C152.414 35.2712 152.8 36.7902 153.55 38.1379C154.299 39.4857 155.387 40.6159 156.705 41.4178C158.024 42.2198 159.529 42.6659 161.073 42.7125C162.616 42.7591 164.146 42.4046 165.511 41.6837C166.876 40.9628 168.03 39.9003 168.859 38.6002C169.689 37.3002 170.166 35.8073 170.244 34.2678C170.321 32.7283 169.997 31.1951 169.302 29.8185C169.909 30.9581 170.815 31.9115 171.924 32.5763C173.032 33.2411 174.301 33.5923 175.594 33.5923C176.887 33.5923 178.155 33.2411 179.264 32.5763C180.372 31.9115 181.278 30.9581 181.885 29.8185C181.189 31.1951 180.864 32.7286 180.941 34.2685C181.018 35.8083 181.495 37.3018 182.325 38.6023C183.154 39.9029 184.308 40.9659 185.674 41.6872C187.039 42.4084 188.569 42.7631 190.113 42.7164C191.657 42.6698 193.162 42.2235 194.481 41.4212C195.8 40.6188 196.887 39.4881 197.637 38.1398C198.386 36.7916 198.771 35.2721 198.755 33.7304C198.739 32.1887 198.321 30.6777 197.544 29.3455C197.235 28.8131 197.072 28.2087 197.072 27.5934C197.072 26.9781 197.235 26.3737 197.544 25.8412C198.336 24.483 198.754 22.9393 198.754 21.3674C198.754 19.7955 198.336 18.2518 197.544 16.8936C197.235 16.3603 197.072 15.7552 197.072 15.1393C197.072 14.5233 197.235 13.9182 197.544 13.385C198.347 12.031 198.772 10.4869 198.776 8.9133Z" fill="black"/>
</svg>
