<svg width="172" height="412" viewBox="0 0 172 412" fill="none" xmlns="http://www.w3.org/2000/svg">
<g clip-path="url(#clip0_1_172)">
<path d="M172 85.839C172.003 72.6606 168.966 59.6583 163.124 47.84C157.281 36.0217 148.791 25.7048 138.31 17.6889C127.83 9.67293 115.64 4.17329 102.687 1.61619C89.7339 -0.940916 76.3646 -0.486803 63.6156 2.94334C50.8665 6.37348 39.0801 12.6875 29.1697 21.3961C19.2593 30.1046 11.4913 40.9738 6.46755 53.1612C1.44383 65.3486 -0.700605 78.5268 0.200449 91.6746C1.1015 104.822 5.02385 117.586 11.6635 128.978C14.657 134.117 16.2339 139.956 16.2339 145.901C16.2339 151.846 14.657 157.685 11.6635 162.825C4.02196 175.934 -0.0036087 190.83 -0.0036087 205.997C-0.0036087 221.163 4.02196 236.059 11.6635 249.168C14.657 254.308 16.2339 260.147 16.2339 266.092C16.2339 272.037 14.657 277.876 11.6635 283.016C4.06044 296.06 0.0374954 310.874 0.000236846 325.964C-0.0370217 341.055 3.91273 355.889 11.4513 368.97C18.9898 382.051 29.8506 392.918 42.9388 400.474C56.027 408.03 70.8799 412.008 86 412.008C101.12 412.008 115.973 408.03 129.061 400.474C142.149 392.918 153.01 382.051 160.549 368.97C168.087 355.889 172.037 341.055 172 325.964C171.962 310.874 167.939 296.06 160.336 283.016C157.34 277.877 155.761 272.038 155.761 266.092C155.761 260.146 157.34 254.307 160.336 249.168C167.975 236.06 172 221.167 172 206.003C172 190.839 167.975 175.946 160.336 162.838C157.34 157.7 155.761 151.86 155.761 145.915C155.761 139.969 157.34 134.129 160.336 128.991C167.996 115.897 172.022 101.002 172 85.839Z" fill="#E27F5C"/>
</g>
<defs>
<clipPath id="clip0_1_172">
<rect width="172" height="412" fill="white"/>
</clipPath>
</defs>
</svg>
