<svg width="288" height="180" viewBox="0 0 288 180" fill="none" xmlns="http://www.w3.org/2000/svg">
<path d="M143.884 80.0645C198.07 80.0645 247.851 98.4483 287.761 129.052C279.982 56.5033 218.554 0 143.884 0C69.213 0 7.75375 56.5033 0 129.052C39.9103 98.4483 89.6908 80.0645 143.884 80.0645Z" fill="#E36D87"/>
<path d="M143.884 179.55L136.266 60.9188H151.495L143.884 179.55Z" fill="#725E25"/>
<path d="M157.908 178.748L136.266 61.8914L150.675 60.1172L157.908 178.748Z" fill="#725E25"/>
<path d="M172.336 176.344L137.067 62.837L150.986 59.3156L172.336 176.344Z" fill="#725E25"/>
<path d="M185.963 171.534L137.067 63.7123L150.535 58.5141L185.963 171.534Z" fill="#725E25"/>
<path d="M199.589 165.923L137.067 64.5438L149.988 57.7125L199.589 165.923Z" fill="#725E25"/>
<path d="M211.613 157.908L137.869 65.2215L149.741 56.9109L211.613 157.908Z" fill="#725E25"/>
<path d="M222.834 149.091L138.67 65.8345L149.403 56.1094L222.834 149.091Z" fill="#725E25"/>
<path d="M233.255 138.67L139.472 66.2921L148.963 55.3078L233.255 138.67Z" fill="#725E25"/>
<path d="M129.052 178.748L150.694 61.8914L136.285 60.1172L129.052 178.748Z" fill="#725E25"/>
<path d="M115.425 176.344L150.694 62.837L136.775 59.3156L115.425 176.344Z" fill="#725E25"/>
<path d="M100.997 171.534L150.694 63.7123L137.006 58.5141L100.997 171.534Z" fill="#725E25"/>
<path d="M88.1719 165.923L149.892 64.5438L137.132 57.7125L88.1719 165.923Z" fill="#725E25"/>
<path d="M76.1484 157.908L149.892 65.2215L138.02 56.9109L76.1484 157.908Z" fill="#725E25"/>
<path d="M64.125 149.091L149.091 65.8345L138.256 56.1094L64.125 149.091Z" fill="#725E25"/>
<path d="M54.5062 138.67L148.289 66.2921L138.798 55.3078L54.5062 138.67Z" fill="#725E25"/>
<path d="M143.88 87.3703C159.153 87.3703 171.534 75.1687 171.534 60.1172C171.534 45.0657 159.153 32.8641 143.88 32.8641C128.608 32.8641 116.227 45.0657 116.227 60.1172C116.227 75.1687 128.608 87.3703 143.88 87.3703Z" fill="black"/>
</svg>
