<svg width="227" height="227" viewBox="0 0 227 227" fill="none" xmlns="http://www.w3.org/2000/svg">
<path d="M196.995 106.126C213.104 90.0174 208.934 59.7313 187.682 38.4796C166.431 17.2279 136.144 13.0583 120.036 29.1664C103.928 45.2746 108.098 75.5608 129.349 96.8124C150.601 118.064 180.887 122.234 196.995 106.126Z" fill="#F2D24E"/>
<path d="M147.75 138.779C160.382 126.146 157.111 102.393 140.442 85.7252C123.774 69.0569 100.021 65.7853 87.3887 78.4177C74.7562 91.0502 78.0278 114.803 94.6961 131.472C111.364 148.14 135.117 151.411 147.75 138.779Z" fill="#F2D24E"/>
<path d="M111.306 168.691C122.573 157.424 119.656 136.239 104.791 121.374C89.9251 106.508 68.7404 103.591 57.4732 114.859C46.206 126.126 49.1229 147.31 63.9883 162.176C78.8538 177.041 100.038 179.958 111.306 168.691Z" fill="#F2D24E"/>
<path d="M79.2449 193.096C88.9068 183.434 86.4034 165.265 73.6534 152.515C60.9034 139.765 42.735 137.262 33.073 146.924C23.4111 156.586 25.9145 174.754 38.6646 187.504C51.4146 200.254 69.583 202.757 79.2449 193.096Z" fill="#F2D24E"/>
<path d="M55.0051 211.056C63.3543 202.707 61.1934 187.01 50.1788 175.995C39.1641 164.98 23.4666 162.82 15.1175 171.169C6.76833 179.518 8.92915 195.215 19.9438 206.23C30.9585 217.245 46.656 219.406 55.0051 211.056Z" fill="#F2D24E"/>
</svg>
